<svg width="20" height="20" viewBox="0 0 20 20" fill="none" xmlns="http://www.w3.org/2000/svg">
<path d="M15.8333 16.334H16.3333V15.834V6.66732V6.16732H15.8333H4.16667H3.66667V6.66732V15.834V16.334H4.16667H15.8333ZM5.5 2.50065V1.33398H6.16667V2.50065V3.00065H6.66667H13.3333H13.8333V2.50065V1.33398H14.5V2.50065V3.00065H15H15.8333C16.1428 3.00065 16.4395 3.12357 16.6583 3.34236L17.0118 2.98881L16.6583 3.34236C16.8771 3.56115 17 3.8579 17 4.16732V15.834C17 16.1434 16.8771 16.4401 16.6583 16.6589C16.4395 16.8777 16.1428 17.0007 15.8333 17.0007H4.16667C3.85725 17.0007 3.5605 16.8777 3.34171 16.6589C3.12292 16.4401 3 16.1434 3 15.834V4.16732C3 3.51846 3.51781 3.00065 4.16667 3.00065H5H5.5V2.50065ZM7 8.83398V9.50065H6.33333V8.83398H7ZM13.6667 8.83398V9.50065H13V8.83398H13.6667ZM9.66667 12.1673H10.3333V12.834H9.66667V12.1673ZM13.6667 12.1673V12.834H13V12.1673H13.6667Z" fill="black" stroke="black"/>
</svg>
