<svg width="16" height="17" viewBox="0 0 16 17" fill="none" xmlns="http://www.w3.org/2000/svg">
<path d="M15.6456 0.866529C15.5333 0.754025 15.4 0.664768 15.2532 0.603869C15.1064 0.542969 14.949 0.511622 14.79 0.511622C14.6311 0.511622 14.4737 0.542969 14.3269 0.603869C14.1801 0.664768 14.0467 0.754025 13.9344 0.866529L8 6.78884L2.06555 0.854393C1.9532 0.742036 1.81981 0.65291 1.67301 0.592103C1.52621 0.531297 1.36887 0.5 1.20997 0.5C1.05108 0.5 0.893737 0.531297 0.746936 0.592103C0.600135 0.65291 0.466749 0.742036 0.354393 0.854393C0.242036 0.966749 0.15291 1.10014 0.0921034 1.24694C0.0312965 1.39374 -1.18387e-09 1.55108 0 1.70997C1.18387e-09 1.86887 0.0312965 2.02621 0.0921034 2.17301C0.15291 2.31981 0.242036 2.4532 0.354393 2.56555L6.28884 8.5L0.354393 14.4344C0.242036 14.5468 0.15291 14.6802 0.0921034 14.827C0.0312965 14.9738 0 15.1311 0 15.29C0 15.4489 0.0312965 15.6063 0.0921034 15.7531C0.15291 15.8999 0.242036 16.0333 0.354393 16.1456C0.466749 16.258 0.600135 16.3471 0.746936 16.4079C0.893737 16.4687 1.05108 16.5 1.20997 16.5C1.36887 16.5 1.52621 16.4687 1.67301 16.4079C1.81981 16.3471 1.9532 16.258 2.06555 16.1456L8 10.2112L13.9344 16.1456C14.0468 16.258 14.1802 16.3471 14.327 16.4079C14.4738 16.4687 14.6311 16.5 14.79 16.5C14.9489 16.5 15.1063 16.4687 15.2531 16.4079C15.3999 16.3471 15.5333 16.258 15.6456 16.1456C15.758 16.0333 15.8471 15.8999 15.9079 15.7531C15.9687 15.6063 16 15.4489 16 15.29C16 15.1311 15.9687 14.9738 15.9079 14.827C15.8471 14.6802 15.758 14.5468 15.6456 14.4344L9.71116 8.5L15.6456 2.56555C16.1068 2.10439 16.1068 1.32769 15.6456 0.866529Z" fill="#0583D2"/>
</svg>
