<svg width="24" height="24" viewBox="0 0 24 24" fill="none" xmlns="http://www.w3.org/2000/svg">
<path d="M4.81963 22.6091C4.70004 22.6349 4.57595 22.6311 4.45816 22.598C4.34037 22.565 4.23244 22.5036 4.14377 22.4193C4.05087 22.3307 3.97951 22.2219 3.93515 22.1014C3.89079 21.9809 3.87462 21.8518 3.88787 21.7241L4.35777 17.4254C4.3707 17.3008 4.41243 17.1809 4.47967 17.0752L13.9671 2.51241C14.1301 2.25558 14.3445 2.0353 14.5969 1.86543C14.8492 1.69556 15.134 1.57978 15.4333 1.52538C15.7326 1.47099 16.0399 1.47916 16.3359 1.54937C16.6319 1.61959 16.9101 1.75034 17.1531 1.93337L18.4227 2.86112C18.9309 3.23785 19.2778 3.79287 19.3937 4.41477C19.5096 5.03667 19.386 5.6794 19.0477 6.21393L9.5546 20.7781C9.46583 20.9129 9.33561 21.0151 9.18361 21.0694L4.91402 22.5918L4.81963 22.6091ZM5.84231 17.825L5.50455 20.6622L8.39713 19.6321L17.7546 5.28117C17.8675 5.10382 17.9094 4.89041 17.8718 4.68354C17.8343 4.47668 17.7201 4.29158 17.5521 4.1652L16.3071 3.24072C16.2261 3.18053 16.1335 3.13768 16.0352 3.11484C15.9369 3.092 15.8349 3.08965 15.7356 3.10796C15.6364 3.12626 15.5419 3.16481 15.4582 3.22122C15.3745 3.27762 15.3033 3.35067 15.2491 3.4358L5.84231 17.825Z" fill="#2E2E2E"/>
</svg>
